<svg width="352" height="352" xmlns="http://www.w3.org/2000/svg" xmlns:xlink="http://www.w3.org/1999/xlink" xml:space="preserve" overflow="hidden"><defs><clipPath id="clip0"><rect x="2024" y="1062" width="352" height="352"/></clipPath></defs><g clip-path="url(#clip0)" transform="translate(-2024 -1062)"><path d="M2024 1141.76C2024 1097.71 2059.71 1062 2103.76 1062L2296.24 1062C2340.29 1062 2376 1097.71 2376 1141.76L2376 1334.24C2376 1378.29 2340.29 1414 2296.24 1414L2103.76 1414C2059.71 1414 2024 1378.29 2024 1334.24Z" fill="#FFFFFF" fill-rule="evenodd"/><g><g><g><g><path d="M357.215 307.566 419.008 307.566 419.008 339.079 357.215 339.079ZM589.03 296.384 589.03 299.374 591.983 299.374 592.025 299.374 594.98 299.374 597.974 299.374 597.974 296.384 594.98 296.384 592.025 296.384 591.983 296.384ZM577.134 285.012 577.134 288.002 580.128 288.002 580.128 290.988 583.123 290.988 583.123 293.77 580.128 293.77 580.128 296.552 577.174 296.552 577.174 299.54 580.17 299.54 580.17 296.761 583.123 296.761 583.123 293.978 586.117 293.978 586.117 290.988 583.123 290.988 583.123 288.002 580.128 288.002 580.128 285.012ZM571.711 276.927 602.463 276.927 602.463 307.566 571.711 307.566ZM388.113 245.414 449.906 245.414 449.906 276.927 449.906 307.566 419.008 307.566 419.008 276.927 388.113 276.927ZM591.675 224.498 591.675 226.654 593.835 226.654 593.835 228.807 595.993 228.807 595.993 230.963 593.835 230.963 593.835 233.117 591.675 233.117 591.675 235.273 593.835 235.273 593.835 233.117 595.993 233.117 595.993 230.963 598.156 230.963 598.156 228.807 595.993 228.807 595.993 226.654 593.835 226.654 593.835 224.498ZM580.157 224.498 580.157 226.654 577.999 226.654 577.999 228.807 575.839 228.807 575.839 230.963 577.999 230.963 577.999 233.117 580.157 233.117 580.157 235.273 582.317 235.273 582.317 233.117 580.157 233.117 580.157 230.963 577.999 230.963 577.999 228.807 580.157 228.807 580.157 226.654 582.317 226.654 582.317 224.498ZM587.286 223.307 584.457 237.663 586.071 237.663 588.928 223.307ZM571.711 214.776 602.463 214.776 602.463 245.414 571.711 245.414ZM326.463 214.776 357.215 214.776 357.215 307.566 326.463 307.566ZM480.545 183.262 571.711 183.262 571.711 214.776 511.299 214.776 511.299 245.414 571.711 245.414 571.711 276.927 511.299 276.927 511.299 307.566 571.711 307.566 571.711 339.079 480.545 339.079 480.545 307.566 480.545 276.927 480.545 245.414 480.545 214.776ZM357.215 183.262 449.82 183.262 449.82 214.776 357.215 214.776Z" fill-rule="evenodd" transform="matrix(1 0 0 1.00759 1735.54 974.347)"/></g></g></g></g></g></svg>