<svg width="88" height="88" xmlns="http://www.w3.org/2000/svg" xmlns:xlink="http://www.w3.org/1999/xlink" xml:space="preserve" overflow="hidden"><defs><clipPath id="clip0"><rect x="596" y="316" width="88" height="88"/></clipPath></defs><g clip-path="url(#clip0)" transform="translate(-596 -316)"><path d="M625.649 317.676C629.181 316.224 633.026 315.7 636.817 316.154 641.705 316.715 646.061 318.794 649.885 322.387 649.99 322.486 650.137 322.526 650.278 322.494 655.44 321.225 660.405 321.672 665.168 323.836L665.399 323.946 665.964 324.224C670.939 326.802 674.507 330.714 676.663 335.95 677.682 338.44 678.196 341.04 678.207 343.746 678.279 345.761 678.056 347.775 677.547 349.726 677.496 349.928 677.551 350.142 677.693 350.294 680.576 353.217 682.581 356.89 683.479 360.895 684.891 367.865 683.443 374.15 679.142 379.741L678.474 380.548C675.626 383.81 671.887 386.169 667.716 387.335 667.532 387.388 667.384 387.527 667.32 387.709 666.385 390.408 665.447 392.71 663.701 395.013 659.305 400.814 652.841 404.04 645.559 404 639.754 403.971 634.61 401.848 630.122 397.635 629.984 397.507 629.788 397.463 629.609 397.517 627.709 398.13 625.795 398.218 623.727 398.196 620.423 398.169 617.169 397.389 614.212 395.915 611.117 394.38 608.423 392.144 606.344 389.385 605.599 388.398 604.862 387.471 604.323 386.374 603.58 384.863 602.973 383.289 602.508 381.67 601.534 377.991 601.512 374.125 602.446 370.435 602.476 370.348 602.486 370.256 602.475 370.164 602.457 370.073 602.409 369.991 602.34 369.929 600.079 367.643 598.352 364.886 597.28 361.855 596.57 359.989 596.158 358.023 596.059 356.029 595.881 353.403 596.114 350.766 596.748 348.212 598.398 342.77 601.548 338.502 606.197 335.404 607.231 334.715 608.214 334.179 609.138 333.798 610.186 333.358 611.239 332.991 612.295 332.683 612.448 332.638 612.568 332.518 612.614 332.364 613.414 329.486 614.792 326.8 616.662 324.47 619.155 321.368 622.151 319.102 625.649 317.676ZM622.701 346.459C621.848 344.968 619.948 344.45 618.456 345.302 616.965 346.155 616.447 348.055 617.3 349.546L623.511 360.418 617.322 370.861C616.509 372.376 617.079 374.263 618.594 375.075 620.02 375.84 621.793 375.385 622.675 374.029L629.788 362.031C630.359 361.068 630.369 359.872 629.814 358.9L622.701 346.459ZM642.669 369.339C640.953 369.441 639.645 370.915 639.747 372.631 639.841 374.205 641.096 375.461 642.669 375.554L660.445 375.554C662.162 375.47 663.487 374.011 663.404 372.294 663.326 370.693 662.046 369.413 660.445 369.335L642.669 369.335Z" fill="#FFFFFF" fill-rule="evenodd"/></g></svg>