<svg role="img" viewBox="0 0 100 100" xmlns="http://www.w3.org/2000/svg" id="Drizzle--Streamline-Simple-Icons" height="100" width="100">
  <desc>
    Drizzle Streamline Icon: https://streamlinehq.com
  </desc>
  <title>Drizzle</title>
  <path d="M22.304166666666667 49.2625a4.316666666666667 4.316666666666667 0 0 0 -1.6458333333333335 -5.925 4.429166666666667 4.429166666666667 0 0 0 -5.987500000000001 1.6625000000000003L0.5750000000000001 69.59166666666668a4.3125 4.3125 0 0 0 1.6458333333333335 5.925 4.429166666666667 4.429166666666667 0 0 0 5.987500000000001 -1.6583333333333334l14.095833333333335 -24.595833333333335Zm46.733333333333334 0a4.316666666666667 4.316666666666667 0 0 0 -1.6416666666666668 -5.925 4.433333333333334 4.433333333333334 0 0 0 -5.991666666666667 1.6625000000000003l-14.091666666666669 24.59166666666667a4.316666666666667 4.316666666666667 0 0 0 1.6416666666666668 5.925c2.1083333333333334 1.1791666666666667 4.791666666666667 0.43333333333333335 5.991666666666667 -1.6583333333333334l14.091666666666669 -24.595833333333335Zm30.387500000000003 -18.854166666666668a4.316666666666667 4.316666666666667 0 0 0 -1.6458333333333335 -5.925 4.425000000000001 4.425000000000001 0 0 0 -5.987500000000001 1.6625000000000003l-14.095833333333335 24.59166666666667a4.316666666666667 4.316666666666667 0 0 0 1.6458333333333335 5.925 4.429166666666667 4.429166666666667 0 0 0 5.987500000000001 -1.6625000000000003l14.095833333333335 -24.59166666666667Zm-46.74583333333334 0a4.3125 4.3125 0 0 0 -1.6416666666666668 -5.925 4.433333333333334 4.433333333333334 0 0 0 -5.991666666666667 1.6583333333333334l-14.091666666666669 24.595833333333335a4.316666666666667 4.316666666666667 0 0 0 1.6416666666666668 5.925c2.1083333333333334 1.175 4.791666666666667 0.43333333333333335 5.991666666666667 -1.6625000000000003l14.091666666666669 -24.59166666666667Z" fill="#c5f74f" stroke-width="4.1667"></path>
</svg>