<svg xmlns="http://www.w3.org/2000/svg" width="100" height="43" viewBox="0 0 99 43"><path d="M96.3 6.9h.1q1.5.5 2.1 1.7.5 1 .3 2v1.7L97 19.2 96 22q-.3 1.6-1.7 2.5-1.2.5-2.4.2H92c-3.3-.6-3.3-.6-4.2-1.7h-.1l-.6-1.5v-1.6l.1-1.7q-2.8 1.1-4 3.9a4 4 0 0 0 0 3.1q.7 1.5 2.3 2.1c2.3.8 5.1-.4 7.3-1.3q1.3-.8 2.5-.3c1.1.4 1.8 1.6 2.3 2.6l.5 1.6v.2q.3 1.1.2 2.2 0 1.8-1.1 3.2-2.1 1.8-4.8 2.5h-.1a17 17 0 0 1-13.4-.6q-2.6-1.4-4.4-3.8C72 30 71.7 26.1 72 22.1l-.1.2q-1.5 2.4-3.8 4.2l-2.8 2C62 31 62 31 60.5 30.6l-.6-.1v.1l.1.8v.2l.1 3c0 1.2 0 2.3-1 3.2-1 1.1-3 1.3-4.5 1.3h-.2q-1.7.2-3.2-.8c-1.1-1.1-1.2-2.5-1.4-4q-1-7.2-.9-14.3h-.5q-1-.3-1.6-1.1l-.3-.7-.2.4-1.3 1.9-.1.3h.1q1 .3 1.7 1 1.5 1.5 1.7 3.7v2.3c0 3-.3 8.3-2.4 10.6-1.2 1-3.1 1-4.7 1.1h-.2q-1.7.3-3-.8l-.3-.3-.1-.1c-1.2-1.6-.5-4.3-.3-6v-.6l.3-1.4-3.2.1V34q.2 1.5-.6 3h-.1q-.7 1-1.9 1.1l-.2.1-2.2.3h-.2q-1.3.2-2.4 0l-.2-.1q-1-.3-1.6-1.3-.8-1.7-.8-3.4l-.6-6.3v.1q.2 4.5-2.8 8a12 12 0 0 1-6.7 3.4h-.3c-2.8.5-6.1 0-8.6-1.4l-.2-.1a9 9 0 0 1-4.8-6.8Q.1 29 .1 27.3T.5 24q.8-3 2.9-5V19c2.2-2.3 5.5-3.6 8.6-3.6q1.5 0 3 .4h.2q1.4.4 2 1.4.4.5.4 1.2h.2l.8.3h.1q1.2.7 2 1.6l.2.2a10 10 0 0 1 2.7 5.3l-.2-3.6V20h-.5q-1.2-.5-1.7-1.5l-.3-.6v-.1l-.1-.8c-.5-1.9-.7-4.9.3-6.7l.1-.2.2-.1c1.5-2 5.6-2 7.8-2.1l5.4-.4h.3c3.2 0 7.2 0 9.9 2l.1.1q.8.6 1.4 1.4v-.2q.8-1.4 2.3-2 3.9-1 7.9-1.1h1.3l3.4-.1c4-.1 8.7.3 11.6 3.1q1.4 1.6 1.4 3.7v1.4-.2l.8-1.1v-.1Q77.4 11 81 9.2h.1a17 17 0 0 1 5.5-1.7h2.7c.6 0 .6 0 1-.2l.3-.4q.6-.6 1.2-.7l.2-.1c1.4-.4 3.1.2 4.4.8m-37.2 12v.2l.2-.1Zm-48.7 7.5-.7 1.3q.2.5.6.7 1.1.6 2.4.4.8-.3 1.4-1l-1.2-.6q-.8-.1-1.4-.7l-.3-.4-.1-.1z" style="stroke:none;fill-rule:nonzero;fill:#c9a6f6;fill-opacity:1"/><path d="M35.5 9.3h.4c2.7 0 6.3.1 8.5 2.2q1 1 1 2.4c0 2-1.4 4-2.7 5.5l-.2.1-1.4 1.4-1.2.8v.2l-.4.2h1.8c1.5 0 3 0 4.4 1.1q1.1 1.4 1 3.3v.2q-.1 3.8-1.1 7.5c-.4 1.5-.4 1.5-1 1.9-1 .6-2.5.5-3.6.5h-.3c-1 0-1 0-1.4-.4q-.6-.5-.4-1.3v-.6q.6-3.3.7-6.8h-3l-4.2.2.1.4v.4l.3 4.8v.1q.1.8-.4 1.5c-.9.8-3 .7-4.1.7H28q-.8 0-1.3-.3-.5-.6-.6-1.4v-.2a108 108 0 0 1-1-16.8H25l-.6.1q-.8.2-1.4 0c-.6-.5-.6-1.5-.8-2.2v-1.6c0-1.7 0-1.7.5-2.2l1.2-.6h.2l4-.7h.3q3.4-.3 7-.4m35.8 2.4v.1q1 .8 1 2v.6a12 12 0 0 1-3.8 8.2l-.5.5-.5.4-1 1h-.2Q64.6 26 62.5 27h-.2q-.9.8-2 .6a4 4 0 0 1-1.7-1.6h-.2l-.7-1.1.4 5.6.1.1v.7l.2 2.5v.1q0 .9-.5 1.4-.7.5-1.7.6H56q-1 .2-2 .1H54q-1 .1-1.7-.4-.7-1-.7-2.2v-.1q-.6-5.1-.8-10.3v-.2l-.1-6h-.2q-.6.2-1.2.2h-.1q-.5 0-.9-.3l-.5-2v-1.6c0-1.5 0-1.5.5-2.1q1.2-.9 2.8-1l1-.1h.1l2.4-.3h.2c12.6-1.3 12.6-1.3 16.5 2M59 19zl.2-.1ZM95.9 8.6q.8.3 1.1.9.3 1-.1 2l-.3 1.3q-.8 3.5-2 6.8l-.2 1-.1.1q-.3.7-.7 1c-1.1.5-2.8 0-3.8-.5q-.8-.2-1-1-.2-1 0-1.9l.8-3.2q-3.6-.2-6.3 2.2a8 8 0 0 0-2.2 7.6v.1q.5 1.5 1.4 2.6l1.3 1h.2q1.6.8 3.4.6h.2q3-.3 5.8-1.7c.7-.3.7-.3 1-.2q1.3.7 1.6 2 .8 1.6.3 3.3c-.8 1.4-3.3 2.1-4.8 2.6h-.2c-3.7 1.3-8 1.4-11.6-.5q-1.3-.6-2.5-1.7l-.3-.3-.5-.5V32a11 11 0 0 1-2.7-7.6v-.1q0-5.7 3.7-10.1V14c2.5-2.8 6.1-4.7 9.8-4.9 3.2-.2 3.2-.2 4 .2v-.2q.3-.8.8-1.3c1-.6 3 .3 4 .7m-82.2 8.6h.2a3 3 0 0 1 1.8.8l.1.5v1h.1q2.1.7 3.6 2l.1.2q1.5 1.4 1.9 3.2v.2c.6 2 .3 4.5-.7 6.4l-1 1.3-.1.1q-1 1.3-2.6 2H17a11.6 11.6 0 0 1-7.5 1h-.2q-2.5-.4-4.8-2.2h-.1a8 8 0 0 1-2.6-6.5v-.4q-.1-1.3.4-2.5V24q1.3-3.6 4.6-5.6l.2-.1q3.1-1.7 6.7-1.2m-3.4 9.2-.7 1.3q.2.5.6.7 1.1.6 2.4.4.8-.3 1.4-1l-1.2-.6-1.2-.6h-.2l-.3-.5-.1-.1z" style="stroke:none;fill-rule:nonzero;fill:#fefefe;fill-opacity:1"/><path d="m12.2 22.6.1.1c0 .8 0 .8.5 1.4l1 .4q1.4.5 2 1.5.5 1.2.1 2.2-.5 1.5-2 2a5 5 0 0 1-3.6.2 4 4 0 0 1-1.5-1l-.2-.1q-.7-1-.7-2.4 0-1.6 1.2-2.8V24q1.5-1.4 3.1-1.4m-1.8 3.8-.7 1.3q.2.5.6.7 1.1.6 2.4.4.8-.3 1.4-1l-1.2-.6-1.2-.6h-.2l-.3-.5-.1-.1z" style="stroke:none;fill-rule:nonzero;fill:#caa6f6;fill-opacity:1"/><path d="M72 25.2v.1q.4 5 3.8 8.7c2.3 2.4 6 3.7 9.3 3.8 4 .2 8.8-.8 11.9-3.5h.2V34l.3-.4q.5-.9.6-1.7.3 2-.9 3.4c-1.2 1.3-3.2 2-4.9 2.6h-.1a17 17 0 0 1-13.4-.6q-2.6-1.4-4.4-3.8a14 14 0 0 1-2.5-8.2Zm0 0" style="stroke:none;fill-rule:nonzero;fill:#8e74ae;fill-opacity:1"/><path d="M63.3 16.1h.1l2 .4q-.8 1.2-2 2a14 14 0 0 1-5.9 3.1q-.3-2.7-.3-5.5 3-.3 6 0M59.2 19zl.2-.1Zm0 0" style="stroke:none;fill-rule:nonzero;fill:#caa6f6;fill-opacity:1"/><path d="M.1 27.8v.1a12 12 0 0 0 1.5 4.8q1.5 2.6 4.1 3.8H6c2.5 1.3 6 1.7 8.7 1h.2q2.7-.5 4.9-2.2h.1a9 9 0 0 0 3.4-5V30l.4-2q.4 4.3-2.7 7.3v.1a12 12 0 0 1-6.7 3.4h-.3c-2.8.5-6.1 0-8.6-1.4l-.2-.1a9 9 0 0 1-4.5-5.6q-.5-2-.5-4" style="stroke:none;fill-rule:nonzero;fill:#8e74ae;fill-opacity:1"/><path d="M36.6 15.3H38q0 .5-.3.6v.2l-.2.1v.1Q35.3 19.6 32 22L32 21V21l-.3-5.3.7-.1h.1l2-.2Zm0 0" style="stroke:none;fill-rule:nonzero;fill:#caa6f5;fill-opacity:1"/><path d="M46.4 16.8h.1l.1.1q.3 1.1 1.2 1.6l.7.2h.1l.4.1v.2q0 7.8 1 15.5l.4 1.3v.1q.6 1.2 1.8 1.8c1.4.4 3.2.2 4.5 0h.1q1.7-.3 2.7-1.6.4-.7.6-1.6.2 1.8-.8 3.2c-1.1 1.2-3.1 1.4-4.7 1.4h-.2q-1.7.2-3.2-.8c-1.1-1.1-1.2-2.5-1.4-4q-1-7.2-.9-14.3h-.5q-1-.3-1.6-1.1l-.3-.7-.2.4-1.3 2-.1.1-1-.1v-.1l1-1.2.2-.1q.8-1 1.3-2.4m-25.9-2.7h.1v.1c.2 2 .2 2 1 3.7l.2.2.4.3 1.2.4.2 2.5q0 5.8.8 11.5c.2 2.2.2 2.2 1.4 3.9l.8.4.4.1q.6.2 1.3.1h.1q1.8 0 3.3-.3h.2q1.4-.4 2.1-1.4.4-.7.5-1.6.2 1.5-.6 3h-.1q-.7 1-1.9 1.1l-.2.1-2.2.3h-.2q-1.3.2-2.4 0l-.2-.1q-1-.3-1.6-1.3-.8-1.7-.8-3.4l-.2-1.9v-.2q-.6-5.8-.7-11.6h-.5q-1.2-.5-1.7-1.5l-.3-.6v-.1l-.4-2.4v-.2Zm52 6v.8l-.2.3v.4l-.5 1-.1.1-.4.5-.1.1q-1.4 2-3.1 3.3l-2.7 2h-.1C62 31 62 31 60.5 30.6q-.7 0-.7-.2v-1.2q2 .4 3.6-.7l.8-.4.1-.1q4-2.5 7-6v-.1l1-1.5Zm0 0" style="stroke:none;fill-rule:nonzero;fill:#8e74ae;fill-opacity:1"/><path d="M98.7 10.7h.1v1.6L97 19.2 96 22q-.3 1.6-1.7 2.5-1.2.5-2.4.2H92c-3.3-.6-3.3-.6-4.2-1.7h-.1l-.6-1.5v-1.2h.1q.3 1 .8 1.6v.1l.5.3q1 .6 2 .8l.4.1q1.9.8 3.8 0c1.2-.9 1.5-2.5 1.8-3.8l.2-.6.6-2v-.1Zm0 0" style="stroke:none;fill-rule:nonzero;fill:#8f74ae;fill-opacity:1"/><path d="M48.3 27.5h.2c-.1 3-.3 8.6-2.5 10.9-1.2 1-3.1 1-4.7 1.1h-.2q-1.7.3-3-.8l-.3-.3-.1-.1q-.7-1-.6-2.4l.2-.1v.2q.3 1.2 1.3 1.8c1.5 1 4.3.6 6 .1q1.2-.4 2-1.6l.6-2q1-3.2 1.1-6.5z" style="stroke:none;fill-rule:nonzero;fill:#8e74ae;fill-opacity:1"/><path d="m87.5 17-.2.5v.5l-.1.2-.3.1-.3.2Q84 19.5 83 22l-.3 1.6q-.3-3 1.8-5.1c.7-.7 2-1.7 3-1.7" style="stroke:none;fill-rule:nonzero;fill:#8f74af;fill-opacity:1"/><path d="m11 24.7.3.3q.7.8 1.8 1c1 .4 1 .4 1.2.9v.5l-.1.4-.6-.2-.8-.4a3 3 0 0 1-1.7-1.2q-.7.3-1 1l-.3.7h-.1a3 3 0 0 1 .6-2.3c.6-.7.6-.7.8-.7m25.3 4.4h1.4v.5l-.1.7h-1l-1 .1h-1.3v-.5l-.1-.1v-.6Zm0 0" style="stroke:none;fill-rule:nonzero;fill:#8e74ae;fill-opacity:1"/><path d="M59 17.8h2.5l-.7.5h-.2c-1 .7-1 .7-1.5.7Zm0 0" style="stroke:none;fill-rule:nonzero;fill:#9075b0;fill-opacity:1"/><path d="M48.9 18.8v.2q.2 6 .7 11.8l.1 1v.4q-.3 0-.2-.3v-1.1l-.1-.3q-.5-5.8-.5-11.7" style="stroke:none;fill-rule:nonzero;fill:#9679b9;fill-opacity:1"/><path d="M23.4 19.8h.1v.1q0 4.2.4 8.3l.4 3.3v.8h-.1l-.1-.3v-.5l-.1-.7v-.2a92 92 0 0 1-.6-10.8" style="stroke:none;fill-rule:nonzero;fill:#9477b6;fill-opacity:1"/><path d="m34.6 17.2-1 1v-1Zm0 0" style="stroke:none;fill-rule:nonzero;fill:#9175b2;fill-opacity:1"/><path d="m74 15 .2.2q0 .7-.3 1.1Zm0 0" style="stroke:none;fill-rule:nonzero;fill:#9577b8;fill-opacity:1"/><path d="m57.7 24.8.3.6h-.1v1h-.1Zm0 0" style="stroke:none;fill-rule:nonzero;fill:#cbb2ea;fill-opacity:1"/><path d="m23.7 26.2.2 1.3-.2-.1z" style="stroke:none;fill-rule:nonzero;fill:#9b7cbe;fill-opacity:1"/><path d="M83.6 17v.3l-.2.1-.6.6h-.1Zm0 0" style="stroke:none;fill-rule:nonzero;fill:#cbb0ed;fill-opacity:1"/><path d="M24 28.6v1l-.1-.1Zm0 0" style="stroke:none;fill-rule:nonzero;fill:#997abb;fill-opacity:1"/><path d="M43.5 18.3v.2l-.5.7-.1-.1Zm0 0" style="stroke:none;fill-rule:nonzero;fill:#caaded;fill-opacity:1"/><path d="M41 20.7v.2l-.3.3v.1h-.3Zm0 0" style="stroke:none;fill-rule:nonzero;fill:#ccb1ed;fill-opacity:1"/><path d="M72.5 20v.7h-.3Zm0 0" style="stroke:none;fill-rule:nonzero;fill:#a180c6;fill-opacity:1"/><path d="m95.3 17.4-.1.7v-.5Zm0 0" style="stroke:none;fill-rule:nonzero;fill:#ccb3ed;fill-opacity:1"/><path d="M96.2 14.1v.7H96Zm0 0" style="stroke:none;fill-rule:nonzero;fill:#cdb2ee;fill-opacity:1"/></svg>