<svg width="80" height="83" xmlns="http://www.w3.org/2000/svg" xmlns:xlink="http://www.w3.org/1999/xlink" xml:space="preserve" overflow="hidden"><g transform="translate(-352 -63)"><path d="M59.8429 60.0322C60.3675 55.6623 60.2103 55.0215 63.4651 55.7294L64.2915 55.8019C66.7942 55.9158 70.0681 55.3994 71.9915 54.5059 76.1319 52.5847 78.5871 49.3771 74.5044 50.2199 65.1917 52.1411 64.5514 48.9877 64.5514 48.9877 74.3852 34.3969 78.496 15.8754 74.9477 11.3417 65.2696-1.02465 48.5172 4.8231 48.2369 4.97492L48.1476 4.9914C46.3076 4.60961 44.2483 4.3815 41.935 4.3441 37.7207 4.27485 34.5228 5.44892 32.0971 7.2888 32.0971 7.2888 2.21167-5.02362 3.602 22.7729 3.89769 28.686 12.0778 67.5165 21.8342 55.7879 25.4001 51.4991 28.8462 47.8729 28.8462 47.8729 30.5574 49.0097 32.6061 49.5896 34.7548 49.3813L34.9209 49.2397C34.8689 49.7722 34.8919 50.293 34.9874 50.9096 32.4745 53.7178 33.2129 54.2109 28.188 55.2452 23.1042 56.293 26.0909 58.1584 28.0404 58.6459 30.4044 59.2371 35.8734 60.0746 39.5696 54.9013L39.4224 55.4916C40.4084 56.2804 40.3417 61.1609 40.4815 64.6479 40.6215 68.1351 40.8549 71.3892 41.5658 73.3078 42.2766 75.226 43.1153 80.1677 49.7192 78.7524 55.2385 77.5697 59.4584 75.8673 59.8429 60.032" stroke="#000000" stroke-width="6.92392" transform="matrix(1 0 0 1.00606 352 63.0177)"/><path d="M74.5053 50.2195C65.1917 52.1407 64.5514 48.9873 64.5514 48.9873 74.3852 34.3956 78.496 15.8737 74.9484 11.3405 65.2704-1.02502 48.5172 4.8231 48.2376 4.97492L48.1476 4.99103C46.3076 4.60906 44.2483 4.3815 41.9338 4.34373 37.7195 4.27467 34.5228 5.44855 32.0971 7.28806 32.0971 7.28806 2.21112-5.0238 3.60107 22.7726 3.89677 28.686 12.0767 67.5165 21.8334 55.7879 25.3995 51.4991 28.8451 47.8729 28.8451 47.8729 30.5565 49.0097 32.6052 49.5896 34.753 49.3813L34.9198 49.2397C34.868 49.7722 34.8917 50.293 34.9867 50.9096 32.4732 53.7178 33.2118 54.2109 28.1872 55.2452 23.1031 56.293 26.0898 58.1584 28.0398 58.6459 30.4039 59.2371 35.8732 60.0746 39.5687 54.9013L39.4213 55.4916C40.4061 56.2804 41.0977 60.6224 40.9818 64.5585 40.8659 68.4947 40.7885 71.197 41.5645 73.3078 42.3404 75.4185 43.1138 80.1677 49.7191 78.7524 55.2383 77.5697 58.0984 74.5046 58.4963 69.3919 58.7787 65.7572 59.4176 66.2945 59.458 63.0448L59.9705 61.5064C60.5615 56.5792 60.0644 54.9897 63.4648 55.729L64.2911 55.8016C66.7938 55.9154 70.0694 55.399 71.9919 54.5055 76.1316 52.5843 78.5867 49.3767 74.505 50.2195Z" fill="#336791" transform="matrix(1 0 0 1.00606 352 63.0177)"/><path d="M39.9686 53.0439C39.7122 62.212 40.0331 71.444 40.9301 73.6877 41.8278 75.9314 43.7487 80.2955 50.3545 78.8804 55.8732 77.6972 57.8812 75.4076 58.7526 70.3538 59.3943 66.6355 60.6315 56.3091 60.7902 54.1933" stroke="#FFFFFF" stroke-width="2.30797" stroke-linecap="round" stroke-linejoin="round" fill="none" transform="matrix(1 0 0 1.00606 352 63.0177)"/><path d="M32.051 7.08328C32.051 7.08328 2.14465-5.1399 3.53497 22.6565 3.83067 28.5699 12.0112 67.4017 21.7677 55.6725 25.3331 51.3832 28.5575 48.0191 28.5575 48.0191" stroke="#FFFFFF" stroke-width="2.30797" stroke-linecap="round" stroke-linejoin="round" fill="none" transform="matrix(1 0 0 1.00606 352 63.0177)"/><path d="M48.2049 4.85235C47.1697 5.17693 64.8406-1.60751 74.8832 11.2248 78.4306 15.7582 74.3198 34.2801 64.4863 48.8722" stroke="#FFFFFF" stroke-width="2.30797" stroke-linecap="round" stroke-linejoin="round" fill="none" transform="matrix(1 0 0 1.00606 352 63.0177)"/><path d="M64.4861 48.8722C64.4861 48.8722 65.1269 52.0265 74.4407 50.104 78.5215 49.2612 76.0656 52.4692 71.9269 54.3912 68.5302 55.9677 60.915 56.3717 60.7906 54.1933 60.4704 48.5729 64.7986 50.2804 64.4863 48.8722 64.2039 47.6038 62.2683 46.359 60.9879 43.2549 59.8702 40.5456 45.6579 19.7682 64.9293 22.854 65.6353 22.7079 59.9031 4.52333 41.8677 4.22764 23.8365 3.93195 24.428 26.4021 24.428 26.4021" stroke="#FFFFFF" stroke-width="2.30797" stroke-linecap="round" stroke-linejoin="bevel" fill="none" transform="matrix(1 0 0 1.00606 352 63.0177)"/><path d="M34.9209 50.7942C32.4071 53.6023 33.1464 54.0954 28.1215 55.13 23.0373 56.178 26.0244 58.0431 27.9739 58.5304 30.338 59.1219 35.8073 59.9594 39.5028 54.7849 40.6281 53.2094 39.4961 50.6956 37.9502 50.0547 37.2033 49.7453 36.2046 49.3576 34.9209 50.7942Z" stroke="#FFFFFF" stroke-width="2.30797" stroke-linecap="round" stroke-linejoin="round" fill="none" transform="matrix(1 0 0 1.00606 352 63.0177)"/><path d="M34.7563 50.7452C34.503 49.0942 35.2988 47.1295 36.1517 44.831 37.4333 41.3823 40.3904 37.933 38.0249 26.9933 36.2616 18.8412 24.4352 25.2968 24.4278 26.4021 24.4206 27.5071 24.9627 32.0049 24.2303 37.2426 23.2745 44.0772 28.5792 49.8575 34.6876 49.2662" stroke="#FFFFFF" stroke-width="2.30797" stroke-linecap="round" stroke-linejoin="round" fill="none" transform="matrix(1 0 0 1.00606 352 63.0177)"/><path d="M31.9423 26.2364C31.889 26.614 32.6335 27.6214 33.6043 27.756 34.5734 27.8912 35.4029 27.1039 35.4555 26.7267 35.5081 26.3492 34.7645 25.9333 33.7933 25.7982 32.8237 25.6628 31.9938 25.8598 31.9425 26.2364Z" stroke="#FFFFFF" stroke-width="0.769318" fill="#FFFFFF" transform="matrix(1 0 0 1.00606 352 63.0177)"/><path d="M61.4605 25.4667C61.513 25.8443 60.7695 26.8517 59.7985 26.9863 58.8287 27.1215 57.9992 26.3342 57.946 25.957 57.8947 25.5795 58.6385 25.1636 59.6085 25.0285 60.5786 24.8933 61.4079 25.0901 61.4605 25.4669Z" stroke="#FFFFFF" stroke-width="0.384659" fill="#FFFFFF" transform="matrix(1 0 0 1.00606 352 63.0177)"/><path d="M64.9293 22.854C65.0891 25.8154 64.2915 27.8325 64.1909 30.9849 64.0421 35.5671 66.3756 40.8118 62.8595 46.063" stroke="#FFFFFF" stroke-width="2.30797" stroke-linecap="round" stroke-linejoin="round" fill="none" transform="matrix(1 0 0 1.00606 352 63.0177)"/><path d="" stroke="#FFFFFF" stroke-width="0.555464" stroke-linecap="round" stroke-linejoin="round" fill="none" transform="matrix(1 0 0 1.00606 352 63.0177)"/></g></svg>