<svg width="80" height="80" xmlns="http://www.w3.org/2000/svg" xmlns:xlink="http://www.w3.org/1999/xlink" xml:space="preserve" overflow="hidden"><defs><clipPath id="clip0"><rect x="618" y="269" width="80" height="80"/></clipPath></defs><g clip-path="url(#clip0)" transform="translate(-618 -269)"><path d="M690.597 329.779 663.161 271.516C662.467 270.055 661.028 269.093 659.412 269.009 657.793 268.901 656.248 269.702 655.404 271.087L625.647 319.283C624.723 320.769 624.743 322.655 625.697 324.121L640.245 346.651C641.376 348.388 643.514 349.174 645.5 348.583L687.719 336.095C689.005 335.719 690.065 334.804 690.625 333.586 691.177 332.374 691.167 330.981 690.599 329.777L690.597 329.779ZM684.454 332.278 648.629 342.871C647.536 343.197 646.487 342.249 646.715 341.146L659.514 279.86C659.753 278.713 661.337 278.532 661.837 279.593L685.531 329.909C685.743 330.362 685.746 330.886 685.538 331.342 685.331 331.798 684.934 332.14 684.452 332.278L684.454 332.278Z" fill="#FFFFFF"/></g></svg>