<svg width="80" height="80" xmlns="http://www.w3.org/2000/svg" xmlns:xlink="http://www.w3.org/1999/xlink" xml:space="preserve" overflow="hidden"><defs><clipPath id="clip0"><rect x="600" y="320" width="80" height="80"/></clipPath></defs><g clip-path="url(#clip0)" transform="translate(-600 -320)"><path d="M672.597 380.779 645.161 322.516C644.467 321.055 643.028 320.093 641.412 320.009 639.793 319.901 638.248 320.702 637.404 322.087L607.647 370.283C606.723 371.769 606.743 373.655 607.697 375.121L622.245 397.651C623.376 399.388 625.514 400.174 627.5 399.583L669.719 387.095C671.005 386.719 672.065 385.804 672.625 384.586 673.177 383.374 673.167 381.981 672.599 380.777L672.597 380.779ZM666.454 383.278 630.629 393.871C629.536 394.197 628.487 393.249 628.715 392.146L641.514 330.86C641.753 329.713 643.337 329.532 643.837 330.593L667.531 380.909C667.743 381.362 667.746 381.886 667.538 382.342 667.331 382.798 666.934 383.14 666.452 383.278L666.454 383.278Z"/></g></svg>