<svg xmlns="http://www.w3.org/2000/svg" width="64" height="64" fill="#fff" viewBox="0 0 128 128"><path d="m96 1-4 1-3 1-2 2-4 3-2 3v1h-1l-1 2v3h-1l-19-2h-2l-20 5-1-1-1-1-3-4-2-2-8-2h-1l-2 1h-1l-5 5-3 8-1 6h1v1l-1 1 1 1v2l1 5v1l-2 3-1 1-1 2-6 18-1 3v12l3 9v1l3 8 2 3 3 5 1 1 2 1 1 2 3 3 3 2 5 3 4 3 3 1 6 2 3 2h4l9 1h12l3-1h3l4-1 5-3h1l2-1 4-2h1l1-1 4-2 3-3 5-5 2-1 2-3 8-14 1-1v-3l1-1v-2l1-2v-2l1-5V63l3-1 2-2 1-1 1-1v-1l2-5v-1l-2-3v-1l-1-1-2-1-2-1h-2l-3 1-3 1-10-14v-1l2-4 2-10-1-9-1-1q-1-3-5-5l-2-1zm0 2h2l1 1-1-1zm-2 5h-1zm1 0h1l3 2-3-2zm-4 0-2 2-2 1-3 3-1 3-1 2 1-2 1-3 2-3 3-1zm3 1 4 1 1 1 1 4v2h1v1l-1 2v2l-1 1v2l-1 1v1q0 1 0 0-7-5-15-8l2-2q2-5 7-7zm12 6v1zm-49 1h-1zm48 0h-1zm-57 1-3 1zm58 0v2l-1 2v1l1-1zm-48 1h-2zm20 0h1l1 1-1-1zm-22 1-9 2h-4l-1 1 1-1h4zm-33 2h1l4 3 1 1 3 3 2 3-1 2v-1h-1v2l-1 1h-1v-2l-1 1 1 2-2 2h-1q-2 0 0 1h-1l-2 2v-1l-1-1v3l-1 1-1-1v1l1 1-2 1-1-3-1-1v-1h-1v-2 2h1v-1l-1-1v-5l-1-1v-1l1-2-1-1h1v-1l1-3 1-1zm6 0h1zm28 0 1 2 1 1v1h-1v-1zm-20 1h-2zm49 0 4 2 3 2-3-2-2-1zm-47 1 1 1zm-9 0 2 2zm46 1 1 4v1h-1v-2l-1-3v-1zm16 0 4 2zm-45 0 1 2 1 1 1 1v1l-2-1-2-3zm-35 0-1 4zm21 2v1h1l1 2-1-2h-1zm34 2v1l1 1v2l1 1q0 1 0 0h-1v-1l-1-1zm33 1 1 1h1-1zm-43 1 1 1 1 1v1l2 2h-1l-3-3zm44 4 2 4v2h-3q-2-2-1-5zm4 1 1 2 3 3 1 2-1-2-3-3zm-22 1h2l1 1h3l3 1 2 2 3 2 6 7 1-1v1h-1l1 2 3 8v5q-1 12-9 20-6 6-14 7h-9l-3-1-2-1-7-4q-6-6-8-14l-1-2v-2l-1-1q-1 0 0 0t1 0v-2l-1-1h1v-2l1-4 2-7 1-1 1-1 3-4 2-2 2-1 2-1 5-2 2-1zl3 1-1-1zm-32 0 3 3v1l1 1h-1l-3-2-1-2zm18 3h-1zm-28 1 1 1 1 1 2 1v1l-3-1v-1l-1-1zm-29 3v2zm108 1 4 2 1 1v1l1 1v4l-1 1v2h-1 1v1h-1l-1 1v1h-1l-1 1-1 1h-3l-3-1-1-1q-3-3-3-7l1-1 1-1v-2l-1 1v1-1l1-1h1l1-2q2-2 5-2zm-40 3h-1q-5 0-8 3l-1 3v1l1 1h3l1 1h3v6h1v1-1 4H65l-1 1v1l-1 1-1 1 1 2v2h1l2 1 1 1 4 1v6l1 4 1 2h5l1-1v-1l1-4v-5h-1l1-1h-1l2-1h3l1-1h1l4-2h2v-1l1-1 1-1 2-3 1-2v-1h-1 1v-2l-1-1-2-1h-1l-4 2h-1l-3 1-3 2h-1l-1 1v-4l-1-6-1-1h3l2-2q2-1 2-3l-1-2-2-1zm12 26h-2l-4 2-1 1v1l1-1 2-1 5-3zM15 47v1zm-6 3H8zm0 0v1zm31 0 1 1v2l1 1-1 2-1 1h-2q-2-2-1-4v-2zm70 1-1 2v2-2zM7 56l-1 2zm100 0v2-1zm1 3v1l1 5v2-2l-1-5zm2 0 2 2zm-17 2-1 1zm22 1 2 1zm-26 0-1 1zm2 1v2zm-39 0v1zm-17 3 4 1h1v1l1 1h1v4h1v2l-1 2v1l-3 3v1h-1l-3 1h-5l-1-1-1-1h-1l-1-2v-1h-1v-1l1-2v-2l1-1q0-3 3-4v-1l4-1zm52 1v2-1 1zm-6 0v1zm8 0v1zm-10 1v1zm1 0-1 1zm-11 1v1zm49 1-1 2zm-36 0-1 1zm-2 0-1 1q0 1 0 0zm-11 0-1 1zm-1 0h-1zm8 0-1 1v1-1zm-9 2h-1zm9 1 1 1q0 1 0 0h-1l1 3v3h1v-3zl2 1h1l1 6v2l-1 3-2 1h-1l-1-1-1-2-1-2v-7zm8 1h-2v1zm33 5-1 3zm-15 2-1 1zm-3 4-3 2-2 1 2-1zm15 3v1zm-57 1 1 1zm43 0-3 2-2 1 2-1zm-44 0q1 0 0 0l-1 3-1 2h-1v-1l1-1 1-3zm57 1h1zm-68 1-1 2h-1l-1 3v-2l1-2zm32 1h4-2zm-47 4-1 1-1 1-1 2h-1zm58 0-6 1h1v1l-1 2v1h-1v-2l1-2zm8 1h1zm-1 1h1v4h-1zm12 2h-1zm-48 1h1l-1 3-2 3h-1l1-1v-1zm11 1v2l-1 1v1l-1 1-1 1v-1l1-3 1-1zm20 0-3 2v2l-1 3h-1v-2l1-1v-2l1-1h1l-1 1zm-44 2-1 2-1 1v2l-1-1v-1l2-3zm31 4-2 1v2l-1 1h-1v-1zm-44 0-1 2-1 1v1h-1l1-3zm-6 2h1zm-7 0 4 3 4 2-4-2zm76 1-1 2zm-64 1h1zm41 0-2 1zm-18 1-1 1v1l-2 3h-1l2-3zm-10 1h6-3zm35 0v2l-1 1v1l-1 1v-2zm-15 0v1l-2 3h-1l1-1zm-22 1-1 1v1l-1 2h-1zm10 10h-1z"/></svg>