<svg
  width="362"
  height="204"
  xmlns="http://www.w3.org/2000/svg"
  xmlns:xlink="http://www.w3.org/1999/xlink"
  xml:space="preserve"
  overflow="hidden"
>
  <defs>
    <clipPath id="clip0">
      <rect x="459" y="258" width="362" height="204" />
    </clipPath>
  </defs>
  <g clip-path="url(#clip0)" transform="translate(-459 -258)">
    <path
      d="M467.676 402.674 548.577 402.674 548.577 443.932 467.676 443.932ZM771.175 388.035 771.175 391.949 775.041 391.949 775.096 391.949 778.964 391.949 782.885 391.949 782.885 388.035 778.964 388.035 775.096 388.035 775.041 388.035ZM755.6 373.146 755.6 377.061 759.52 377.061 759.52 380.97 763.441 380.97 763.441 384.612 759.52 384.612 759.52 388.255 755.652 388.255 755.652 392.167 759.575 392.167 759.575 388.527 763.441 388.527 763.441 384.885 767.362 384.885 767.362 380.97 763.441 380.97 763.441 377.061 759.52 377.061 759.52 373.146ZM748.5 362.561 788.761 362.561 788.761 402.674 748.5 402.674ZM508.128 321.303 589.03 321.303 589.03 362.561 589.03 402.674 548.577 402.674 548.577 362.561 508.128 362.561ZM774.638 293.919 774.638 296.742 777.466 296.742 777.466 299.561 780.291 299.561 780.291 302.384 777.466 302.384 777.466 305.203 774.638 305.203 774.638 308.026 777.466 308.026 777.466 305.203 780.291 305.203 780.291 302.384 783.122 302.384 783.122 299.561 780.291 299.561 780.291 296.742 777.466 296.742 777.466 293.919ZM759.558 293.919 759.558 296.742 756.733 296.742 756.733 299.561 753.905 299.561 753.905 302.384 756.733 302.384 756.733 305.203 759.558 305.203 759.558 308.026 762.386 308.026 762.386 305.203 759.558 305.203 759.558 302.384 756.733 302.384 756.733 299.561 759.558 299.561 759.558 296.742 762.386 296.742 762.386 293.919ZM768.892 292.36 765.188 311.155 767.301 311.155 771.042 292.36ZM748.5 281.191 788.761 281.191 788.761 321.303 748.5 321.303ZM427.415 281.191 467.676 281.191 467.676 402.674 427.415 402.674ZM629.143 239.932 748.5 239.932 748.5 281.191 669.407 281.191 669.407 321.303 748.5 321.303 748.5 362.561 669.407 362.561 669.407 402.674 748.5 402.674 748.5 443.932 629.143 443.932 629.143 402.674 629.143 362.561 629.143 321.303 629.143 281.191ZM467.676 239.932 588.917 239.932 588.917 281.191 467.676 281.191Z"
      fill="#FFFFFF"
      fill-rule="evenodd"
      transform="matrix(1.00181 0 0 1 30.8123 18.0682)"
    />
  </g>
</svg>
