<svg
  width="1247"
  height="704"
  xmlns="http://www.w3.org/2000/svg"
  xmlns:xlink="http://www.w3.org/1999/xlink"
  xml:space="preserve"
  overflow="hidden"
>
  <defs>
    <clipPath id="clip0">
      <rect x="1475" y="828" width="1247" height="704" />
    </clipPath>
  </defs>
  <g clip-path="url(#clip0)" transform="translate(-1475 -828)">
    <path
      d="M1613.94 1389.62 1893.13 1389.62 1893.13 1532 1613.94 1532ZM2661.31 1339.1 2661.31 1352.61 2674.65 1352.61 2674.84 1352.61 2688.19 1352.61 2701.72 1352.61 2701.72 1339.1 2688.19 1339.1 2674.84 1339.1 2674.65 1339.1ZM2607.56 1287.72 2607.56 1301.23 2621.09 1301.23 2621.09 1314.72 2634.62 1314.72 2634.62 1327.29 2621.09 1327.29 2621.09 1339.86 2607.74 1339.86 2607.74 1353.36 2621.28 1353.36 2621.28 1340.8 2634.62 1340.8 2634.62 1328.23 2648.15 1328.23 2648.15 1314.72 2634.62 1314.72 2634.62 1301.23 2621.09 1301.23 2621.09 1287.72ZM2583.06 1251.19 2722 1251.19 2722 1389.62 2583.06 1389.62ZM1753.54 1108.81 2032.73 1108.81 2032.73 1251.19 2032.73 1389.62 1893.13 1389.62 1893.13 1251.19 1753.54 1251.19ZM2673.26 1014.31 2673.26 1024.05 2683.02 1024.05 2683.02 1033.78 2692.77 1033.78 2692.77 1043.52 2683.02 1043.52 2683.02 1053.25 2673.26 1053.25 2673.26 1062.99 2683.02 1062.99 2683.02 1053.25 2692.77 1053.25 2692.77 1043.52 2702.54 1043.52 2702.54 1033.78 2692.77 1033.78 2692.77 1024.05 2683.02 1024.05 2683.02 1014.31ZM2621.22 1014.31 2621.22 1024.05 2611.47 1024.05 2611.47 1033.78 2601.71 1033.78 2601.71 1043.52 2611.47 1043.52 2611.47 1053.25 2621.22 1053.25 2621.22 1062.99 2630.98 1062.99 2630.98 1053.25 2621.22 1053.25 2621.22 1043.52 2611.47 1043.52 2611.47 1033.78 2621.22 1033.78 2621.22 1024.05 2630.98 1024.05 2630.98 1014.31ZM2653.43 1008.93 2640.65 1073.79 2647.94 1073.79 2660.85 1008.93ZM2583.06 970.386 2722 970.386 2722 1108.81 2583.06 1108.81ZM1475 970.386 1613.94 970.386 1613.94 1389.62 1475 1389.62ZM2171.16 828 2583.06 828 2583.06 970.386 2310.11 970.386 2310.11 1108.81 2583.06 1108.81 2583.06 1251.19 2310.11 1251.19 2310.11 1389.62 2583.06 1389.62 2583.06 1532 2171.16 1532 2171.16 1389.62 2171.16 1251.19 2171.16 1108.81 2171.16 970.386ZM1613.94 828 2032.34 828 2032.34 970.386 1613.94 970.386Z"
      fill="#FFFFFF"
      fill-rule="evenodd"
    />
  </g>
</svg>
